<svg xmlns="http://www.w3.org/2000/svg" viewBox="0 0 27.54 29.95"><defs><style>.cls-1{fill:#989898;}</style></defs><title>Grupo 755 (2)</title><g id="Capa_2" data-name="Capa 2"><g id="Capa_1-2" data-name="Capa 1"><g id="Grupo_755" data-name="Grupo 755"><path class="cls-1" d="M13.78,30h0a6.24,6.24,0,0,1-5.41-4.2H3a3,3,0,0,1-3-3,3,3,0,0,1,.83-2.08L1,20.42c1-1.07,2.54-2.68,2.54-7.54a10.1,10.1,0,0,1,7.15-9.65V3a3,3,0,1,1,6.08,0v.19A10.1,10.1,0,0,1,24,12.88c0,4.86,1.53,6.47,2.55,7.54l.21.22a3,3,0,0,1,.82,2.08,3,3,0,0,1-3,3H19.34A6.55,6.55,0,0,1,13.78,30Zm-2.64-4.2a3.8,3.8,0,0,0,2.64,1.7h0a4,4,0,0,0,2.76-1.7Zm8.41-2.5H24.5a.54.54,0,0,0,.54-.53.57.57,0,0,0-.13-.36l-.22-.22c-1.2-1.27-3.23-3.4-3.23-9.26a7.59,7.59,0,0,0-6.14-7.45l-1-.2V3a.54.54,0,0,0-.54-.54.54.54,0,0,0-.54.54V5.23l-1,.2a7.59,7.59,0,0,0-6.14,7.45c0,5.86-2,8-3.23,9.26l-.2.21a.53.53,0,0,0-.15.36.54.54,0,0,0,.54.54Z"/></g></g></g></svg>