<svg xmlns="http://www.w3.org/2000/svg" viewBox="0 0 33.45 24.89"><defs><style>.cls-1{fill:#989898;}</style></defs><title>Grupo 756 (2)</title><g id="Capa_2" data-name="Capa 2"><g id="Capa_1-2" data-name="Capa 1"><g id="Grupo_756" data-name="Grupo 756"><g id="Grupo_223" data-name="Grupo 223"><path class="cls-1" d="M33.27,3.47a1.25,1.25,0,0,0-1.07-.61H6.92L5.66.63A1.25,1.25,0,0,0,4.57,0H1.25a1.25,1.25,0,0,0,0,2.5H3.84L5.09,4.69l0,0h0L11.2,16.32a1.26,1.26,0,0,0,1.11.67H26.09a1.26,1.26,0,0,0,1.11-.67L33.31,4.69A1.24,1.24,0,0,0,33.27,3.47Zm-7.93,11H13.06L8.27,5.36H30.13Z"/><path class="cls-1" d="M14.76,24.89A3.25,3.25,0,1,1,18,21.65,3.24,3.24,0,0,1,14.76,24.89Zm0-4a.75.75,0,0,0-.74.75.74.74,0,0,0,.74.74.75.75,0,0,0,.75-.74A.76.76,0,0,0,14.76,20.9Z"/><path class="cls-1" d="M23.69,24.89a3.25,3.25,0,1,1,3.25-3.24A3.25,3.25,0,0,1,23.69,24.89Zm0-4a.75.75,0,0,0-.74.75.75.75,0,0,0,1.49,0A.75.75,0,0,0,23.69,20.9Z"/></g></g></g></g></svg>