<svg xmlns="http://www.w3.org/2000/svg" viewBox="0 0 27.98 26.23"><defs><style>.cls-1{fill:#fff;}</style></defs><title>Recurso 126</title><g id="Capa_2" data-name="Capa 2"><g id="Capa_1-2" data-name="Capa 1"><path class="cls-1" d="M3.92,26.23a3.22,3.22,0,0,1-2-.73,2.89,2.89,0,0,1-1-2.84l.73-3.58a.29.29,0,0,0,0-.09A12.14,12.14,0,0,1,.4,10v0A13.64,13.64,0,0,1,11.35.25,14.65,14.65,0,0,1,23.81,3.76a12.51,12.51,0,0,1,3.94,11.72,13.49,13.49,0,0,1-10.9,10.36,15,15,0,0,1-8.13-.7.58.58,0,0,0-.36,0l-3.53,1A3.56,3.56,0,0,1,3.92,26.23ZM2.81,10.61a9.73,9.73,0,0,0,.91,7.15A2.66,2.66,0,0,1,4,19.54L3.3,23.15a.41.41,0,0,0,.15.4.72.72,0,0,0,.48.18.83.83,0,0,0,.22,0l3.56-1a3,3,0,0,1,1.92.12,12.48,12.48,0,0,0,6.77.57A11,11,0,0,0,25.3,15a9.94,9.94,0,0,0-3.16-9.33A12.16,12.16,0,0,0,11.78,2.71,11.18,11.18,0,0,0,2.81,10.61Z"/></g></g></svg>