<svg xmlns="http://www.w3.org/2000/svg" viewBox="0 0 20.43 17.76"><defs><style>.cls-1{fill:#fff;}</style></defs><title>Recurso 34</title><g id="Capa_2" data-name="Capa 2"><g id="Capa_1-2" data-name="Capa 1"><path class="cls-1" d="M10.22,17.76,10,17.59C3.56,13.56.31,9.88,0,6.33v-1A5.47,5.47,0,0,1,4.81,0c.35,0,.65,0,.94,0,2.19,0,3.36,1.21,4.47,2.41C11.32,1.21,12.49,0,14.68,0c.29,0,.59,0,.92,0a5.47,5.47,0,0,1,4.83,5.23v1c-.31,3.59-3.56,7.27-9.95,11.3ZM5.75,1a8.07,8.07,0,0,0-.83,0A4.45,4.45,0,0,0,1,5.31v1c.27,3.08,3.37,6.55,9.22,10.29,5.84-3.74,8.94-7.22,9.21-10.34v-1A4.45,4.45,0,0,0,15.5,1a7.75,7.75,0,0,0-.82,0c-1.81,0-2.74,1-3.82,2.19l-.64.69-.66-.7C8.49,2,7.56,1,5.75,1Z"/></g></g></svg>