<svg xmlns="http://www.w3.org/2000/svg" viewBox="0 0 28.47 25.73"><defs><style>.cls-1{fill:#989898;}</style></defs><title>Recurso 121</title><g id="Capa_2" data-name="Capa 2"><g id="Capa_1-2" data-name="Capa 1"><path class="cls-1" d="M27.77,7.58c-.07-.18-.13-.36-.21-.53a12,12,0,0,0-1.06-2,12.92,12.92,0,0,0-1.42-1.7A11.52,11.52,0,0,0,6.31,7.05a4.87,4.87,0,0,0-.21.53,11.53,11.53,0,0,0-.7,4,11.41,11.41,0,0,0,1.7,6l-.1.07L.41,23.55a1.25,1.25,0,0,0-.09,1.77,1.24,1.24,0,0,0,.93.41,1.27,1.27,0,0,0,.83-.32l6.54-5.89a11.51,11.51,0,0,0,16.46.17A11.72,11.72,0,0,0,26.5,18a11.53,11.53,0,0,0,1.27-10.4Zm-10.84,13a9,9,0,1,1,9-9A9,9,0,0,1,16.93,20.57Z"/></g></g></svg>