<svg xmlns="http://www.w3.org/2000/svg" viewBox="0 0 27.55 29.95"><defs><style>.cls-1{fill:#989898;}</style></defs><title>Grupo 755</title><g id="Capa_2" data-name="Capa 2"><g id="Capa_1-2" data-name="Capa 1"><g id="Grupo_755" data-name="Grupo 755"><path class="cls-1" d="M27.55,22.71h0a3.06,3.06,0,0,1-3.05,3H19.35A6.59,6.59,0,0,1,13.78,30a6.24,6.24,0,0,1-5.41-4.2H3.05a3,3,0,0,1-3-3,3,3,0,0,1,.84-2.08l.2-.21c1-1.07,2.55-2.68,2.55-7.55a10.07,10.07,0,0,1,7.15-9.65V3a3,3,0,1,1,6.07,0v.18A10.09,10.09,0,0,1,24,12.87c0,4.87,1.53,6.48,2.55,7.55l.21.23A3,3,0,0,1,27.55,22.71Z"/></g></g></g></svg>