<svg xmlns="http://www.w3.org/2000/svg" viewBox="0 0 33.45 24.89"><defs><style>.cls-1{fill:#989898;}</style></defs><title>Grupo 756</title><g id="Capa_2" data-name="Capa 2"><g id="Capa_1-2" data-name="Capa 1"><g id="Grupo_756" data-name="Grupo 756"><g id="Grupo_223" data-name="Grupo 223"><path class="cls-1" d="M33.31,4.69,27.2,16.32a1.26,1.26,0,0,1-1.11.67H12.31a1.26,1.26,0,0,1-1.11-.67L5.12,4.74h0l0,0L3.84,2.5H1.25a1.25,1.25,0,0,1,0-2.5H4.57A1.25,1.25,0,0,1,5.66.63L6.92,2.86H32.2a1.26,1.26,0,0,1,1.11,1.83Z"/><path class="cls-1" d="M18,21.65a3.25,3.25,0,1,1-3.25-3.25A3.25,3.25,0,0,1,18,21.65Z"/><path class="cls-1" d="M26.94,21.65a3.25,3.25,0,1,1-3.25-3.25A3.25,3.25,0,0,1,26.94,21.65Z"/></g></g></g></g></svg>