<svg xmlns="http://www.w3.org/2000/svg" viewBox="0 0 27.98 26.23"><defs><style>.cls-1{fill:#989898;}</style></defs><title>Recurso 125</title><g id="Capa_2" data-name="Capa 2"><g id="Capa_1-2" data-name="Capa 1"><path class="cls-1" d="M27.75,15.48a13.48,13.48,0,0,1-10.9,10.36,14.87,14.87,0,0,1-8.13-.7.55.55,0,0,0-.35,0l-3.53,1a3.57,3.57,0,0,1-.92.12,3.25,3.25,0,0,1-2-.73,2.9,2.9,0,0,1-1-2.84l.73-3.58a.27.27,0,0,0,0-.08A12.22,12.22,0,0,1,.4,10v0a13.67,13.67,0,0,1,11-9.69A14.63,14.63,0,0,1,23.81,3.77,12.46,12.46,0,0,1,27.75,15.48Z"/></g></g></svg>