<svg xmlns="http://www.w3.org/2000/svg" viewBox="0 0 28.47 25.73"><defs><style>.cls-1{fill:#989898;}</style></defs><title>Recurso 120</title><g id="Capa_2" data-name="Capa 2"><g id="Capa_1-2" data-name="Capa 1"><path class="cls-1" d="M28.47,11.54a11.5,11.5,0,0,1-2,6.44,11.72,11.72,0,0,1-1.42,1.71,11.51,11.51,0,0,1-16.46-.17L2.08,25.41a1.27,1.27,0,0,1-.83.32,1.24,1.24,0,0,1-.93-.41,1.25,1.25,0,0,1,.09-1.77L7,17.62l.1-.07a11.41,11.41,0,0,1-1.7-6,11.53,11.53,0,0,1,.7-4,4.87,4.87,0,0,1,.21-.53A11.52,11.52,0,0,1,25.08,3.38a12.92,12.92,0,0,1,1.42,1.7,12,12,0,0,1,1.06,2c.08.17.14.35.21.53A11.53,11.53,0,0,1,28.47,11.54Z"/></g></g></svg>