<svg xmlns="http://www.w3.org/2000/svg" xmlns:xlink="http://www.w3.org/1999/xlink" viewBox="0 0 63.25 62.92"><defs><style>.cls-1{fill:#fff;}.cls-2{clip-path:url(#clip-path);}.cls-3{clip-path:url(#clip-path-2);}.cls-4{clip-path:url(#clip-path-3);}.cls-5{clip-path:url(#clip-path-4);}</style><clipPath id="clip-path" transform="translate(0.79 0.41)"><path class="cls-1" d="M30.88,59A28.08,28.08,0,0,1,2.8,30.88h0A28.08,28.08,0,0,1,30.88,2.8h0A28.08,28.08,0,0,1,59,30.88h0A28.07,28.07,0,0,1,30.88,59ZM30.88,0A30.88,30.88,0,1,0,61.75,30.88,30.87,30.87,0,0,0,30.88,0Z"/></clipPath><clipPath id="clip-path-2" transform="translate(0.79 0.41)"><rect class="cls-1" width="61.75" height="61.75"/></clipPath><clipPath id="clip-path-3" transform="translate(0.79 0.41)"><path class="cls-1" d="M32.23,49.39V32.5H37.9l.84-6.58H32.22V21.71c0-1.89.53-3.2,3.26-3.2H39V12.62a45.37,45.37,0,0,0-5.08-.26,7.92,7.92,0,0,0-8.48,7.34,6.87,6.87,0,0,0,0,1.36v4.86H19.74V32.5h5.69V49.39Z"/></clipPath><clipPath id="clip-path-4" transform="translate(0.79 0.41)"><rect class="cls-1" x="19.75" y="12.36" width="19.23" height="37.03"/></clipPath></defs><title>Recurso 195</title><g id="Capa_2" data-name="Capa 2"><g id="Capa_1-2" data-name="Capa 1"><g id="Grupo_3758" data-name="Grupo 3758"><path class="cls-1" d="M30.88,59A28.08,28.08,0,0,1,2.8,30.88h0A28.08,28.08,0,0,1,30.88,2.8h0A28.08,28.08,0,0,1,59,30.88h0A28.07,28.07,0,0,1,30.88,59ZM30.88,0A30.88,30.88,0,1,0,61.75,30.88,30.87,30.87,0,0,0,30.88,0Z" transform="translate(0.79 0.41)"/><g class="cls-2"><g id="Grupo_3757" data-name="Grupo 3757"><g id="Grupo_3756" data-name="Grupo 3756"><rect class="cls-1" x="0.79" y="0.41" width="61.75" height="61.75"/><g class="cls-3"><g id="Grupo_3755" data-name="Grupo 3755"><rect id="Rect치ngulo_1622" data-name="Rect치ngulo 1622" class="cls-1" width="63.25" height="62.92"/></g></g></g></g></g></g><g id="Grupo_3762" data-name="Grupo 3762"><path class="cls-1" d="M32.23,49.39V32.5H37.9l.84-6.58H32.22V21.71c0-1.89.53-3.2,3.26-3.2H39V12.62a45.37,45.37,0,0,0-5.08-.26,7.92,7.92,0,0,0-8.48,7.34,6.87,6.87,0,0,0,0,1.36v4.86H19.74V32.5h5.69V49.39Z" transform="translate(0.79 0.41)"/><g class="cls-4"><g id="Grupo_3761" data-name="Grupo 3761"><g id="Grupo_3760" data-name="Grupo 3760"><rect class="cls-1" x="20.54" y="12.77" width="19.23" height="37.03"/><g class="cls-5"><g id="Grupo_3759" data-name="Grupo 3759"><rect id="Rect치ngulo_1624" data-name="Rect치ngulo 1624" class="cls-1" x="19.87" y="12.26" width="20.65" height="38.4"/></g></g></g></g></g></g></g></g></svg>