<svg xmlns="http://www.w3.org/2000/svg" xmlns:xlink="http://www.w3.org/1999/xlink" viewBox="0 0 57.23 57.23"><defs><style>.cls-1{fill:url(#Degradado_sin_nombre_30);}</style><linearGradient id="Degradado_sin_nombre_30" x1="-1073.92" y1="-65.49" x2="-1075.71" y2="-63.18" gradientTransform="matrix(27.13, 0, 0, -27.13, 29190.51, -1717.97)" gradientUnits="userSpaceOnUse"><stop offset="0" stop-color="#43cea2"/><stop offset="1" stop-color="#185a9d"/></linearGradient></defs><title>Sustracción 23 (2)</title><g id="Capa_2" data-name="Capa 2"><g id="Capa_1-2" data-name="Capa 1"><path id="Sustracción_23" data-name="Sustracción 23" class="cls-1" d="M28.68,57.23A28.56,28.56,0,1,1,49,48.83,28.67,28.67,0,0,1,28.68,57.23Zm0-45.68c-4.69,0-5.31,0-7.15.1a12.78,12.78,0,0,0-4.2.81,8.86,8.86,0,0,0-5.07,5.06,12.88,12.88,0,0,0-.8,4.21c-.09,1.86-.11,2.47-.11,7.14s0,5.27.11,7.14a12.88,12.88,0,0,0,.8,4.21,8.55,8.55,0,0,0,2,3.06,8.33,8.33,0,0,0,3.07,2,12.64,12.64,0,0,0,4.21.81c1.85.09,2.41.1,7.14.1s5.29,0,7.14-.1A12.64,12.64,0,0,0,40,45.28a8.91,8.91,0,0,0,5.06-5.06A12.64,12.64,0,0,0,45.9,36c.09-1.86.11-2.48.11-7.14s0-5.27-.11-7.14a12.64,12.64,0,0,0-.81-4.21A8.82,8.82,0,0,0,40,12.46a13.1,13.1,0,0,0-4.2-.81c-1.85-.08-2.47-.1-7.15-.1Zm0,31.53c-4.59,0-5.15,0-7-.11a9.55,9.55,0,0,1-3.21-.59,5.74,5.74,0,0,1-3.29-3.28,9.93,9.93,0,0,1-.6-3.23c-.08-1.81-.1-2.35-.1-7s0-5.19.1-7a9.76,9.76,0,0,1,.6-3.21,5.73,5.73,0,0,1,3.29-3.29,9.81,9.81,0,0,1,3.21-.6c1.87-.08,2.42-.1,7-.1s5.14,0,7,.1a9.76,9.76,0,0,1,3.21.6,5.72,5.72,0,0,1,3.3,3.29,9.5,9.5,0,0,1,.59,3.21c.09,1.82.11,2.37.11,7s0,5.18-.11,7a9.66,9.66,0,0,1-.59,3.23,5.72,5.72,0,0,1-3.29,3.28,9.57,9.57,0,0,1-3.22.6c-1.86.08-2.41.1-7,.1Zm0-23.1a8.9,8.9,0,1,0,8.89,8.89A8.89,8.89,0,0,0,28.68,20Zm9.24-2.44A2.09,2.09,0,1,0,40,19.63a2.08,2.08,0,0,0-2.08-2.09ZM28.68,34.65a5.78,5.78,0,1,1,5.77-5.78h0a5.77,5.77,0,0,1-5.77,5.78Z"/></g></g></svg>