<svg xmlns="http://www.w3.org/2000/svg" xmlns:xlink="http://www.w3.org/1999/xlink" viewBox="0 0 229.01 73.26"><defs><style>.cls-1{fill:none;}.cls-2{fill:#43cea2;}.cls-3{clip-path:url(#clip-path);}.cls-4{clip-path:url(#clip-path-2);}.cls-5{clip-path:url(#clip-path-3);}.cls-6{clip-path:url(#clip-path-4);}.cls-7{clip-path:url(#clip-path-5);}.cls-8{clip-path:url(#clip-path-6);}.cls-9{fill:#185a9d;}.cls-10{fill:url(#Degradado_sin_nombre);}</style><clipPath id="clip-path"><path class="cls-1" d="M85.86,64.68a3,3,0,0,1,.88,2.11A3.13,3.13,0,0,1,85.86,69a2.79,2.79,0,0,1-2.08.9H67.58a2.92,2.92,0,0,1-2.15-.87,3.53,3.53,0,0,1-1-2.27V34.4a2.92,2.92,0,0,1,.91-2.15,3.08,3.08,0,0,1,2.23-.87,3,3,0,0,1,3,3V63.77H83.77A2.79,2.79,0,0,1,85.86,64.68Z"/></clipPath><clipPath id="clip-path-2"><path class="cls-1" d="M112.57,43.13V66.94a3,3,0,0,1-3,3h-.06a3,3,0,0,1-3.08-2.81v-9h-11v8.82a2.89,2.89,0,0,1-.91,2.15,3.1,3.1,0,0,1-2.23.88,2.82,2.82,0,0,1-2.12-.91,3,3,0,0,1-.85-2.12V43a11.35,11.35,0,0,1,.94-4.56,12.24,12.24,0,0,1,2.48-3.72,11.59,11.59,0,0,1,12.66-2.48,12,12,0,0,1,3.69,2.45,11.82,11.82,0,0,1,2.51,3.66,10.92,10.92,0,0,1,.93,4.47Zm-6.1-.12a5.37,5.37,0,0,0-.42-2.14,5.67,5.67,0,0,0-1.18-1.76,5.55,5.55,0,0,0-4-1.6A5.22,5.22,0,0,0,97,39.11,5.36,5.36,0,0,0,95.47,43v8.83h11Z"/></clipPath><clipPath id="clip-path-3"><path class="cls-1" d="M133.79,67.92a3.18,3.18,0,0,1-1.15,1.51,2.81,2.81,0,0,1-3.39-.06A3.42,3.42,0,0,1,128,67.92l.12.06q-1.5-3.81-3.11-7.92c-1.07-2.74-2.14-5.5-3.23-8.28l-3.24-8.28q-1.59-4.11-3-7.91a3.39,3.39,0,0,1,0-2.39,2.83,2.83,0,0,1,1.66-1.66,3.07,3.07,0,0,1,2.36.09,2.81,2.81,0,0,1,1.57,1.72l9.79,25.2,9.85-25.2a2.86,2.86,0,0,1,1.58-1.72,3,3,0,0,1,2.35-.09,2.9,2.9,0,0,1,1.63,1.66,3,3,0,0,1,0,2.39L133.79,68Z"/></clipPath><clipPath id="clip-path-4"><path class="cls-1" d="M154.39,31.38a2.8,2.8,0,0,1,2.09.9,3,3,0,0,1,.88,2.12V66.91a2.93,2.93,0,0,1-.88,2.15,2.87,2.87,0,0,1-2.09.88,3,3,0,0,1-2.2-.88,2.93,2.93,0,0,1-.88-2.15V34.4a3,3,0,0,1,3.07-3Z"/></clipPath><clipPath id="clip-path-5"><path class="cls-1" d="M175.48,71.14a12.21,12.21,0,0,1-5-1,13.06,13.06,0,0,1-4.11-2.9,14.89,14.89,0,0,1-2.84-4.3,15.2,15.2,0,0,1-1.27-5.22V35.61a3,3,0,0,1,.88-2.15,2.88,2.88,0,0,1,2.2-.94,2.76,2.76,0,0,1,2.12.94,3.06,3.06,0,0,1,.84,2.15V57.73a7.14,7.14,0,0,0,.58,2.84,7.7,7.7,0,0,0,1.54,2.32,7.11,7.11,0,0,0,2.3,1.58,7,7,0,0,0,2.78.57,7.07,7.07,0,0,0,2.84-.57,7.37,7.37,0,0,0,3.9-3.9,7.16,7.16,0,0,0,.58-2.85V35.61a3.06,3.06,0,0,1,.87-2.15,2.9,2.9,0,0,1,2.21-.94,2.8,2.8,0,0,1,2.14.94,3,3,0,0,1,.88,2.15V57.73a13.53,13.53,0,0,1-1.1,5.13A13.31,13.31,0,0,1,185,67.12a13.61,13.61,0,0,1-4.23,2.93A12.5,12.5,0,0,1,175.48,71.14Z"/></clipPath><clipPath id="clip-path-6"><path class="cls-1" d="M206.91,30.41a12.91,12.91,0,0,1,5,1,13.64,13.64,0,0,1,7.19,7.1,12.74,12.74,0,0,1,1.09,5.23,13.32,13.32,0,0,1-8,12.36,12.85,12.85,0,0,1-5.26,1.06,7.71,7.71,0,0,1-3.08-.82,22.08,22.08,0,0,1-4.11-2.56V65.94a3,3,0,0,1-.91,2.21,3,3,0,0,1-2.17.88,2.93,2.93,0,0,1-2.15-.88,3,3,0,0,1-.88-2.21V43.82a13.11,13.11,0,0,1,1.12-5,14.5,14.5,0,0,1,2.88-4.29,14.13,14.13,0,0,1,4.2-3A11.85,11.85,0,0,1,206.91,30.41Zm0,20.61a7.33,7.33,0,0,0,2.81-.55,7.15,7.15,0,0,0,2.3-1.54,7.4,7.4,0,0,0,1.57-2.3,7.08,7.08,0,0,0,.58-2.87,7,7,0,0,0-.58-2.81A7.11,7.11,0,0,0,212,38.68a7.93,7.93,0,0,0-2.3-1.54,7.21,7.21,0,0,0-5.62,0A7.31,7.31,0,0,0,200.29,41a7,7,0,0,0-.57,2.81,7.07,7.07,0,0,0,.57,2.87,7.93,7.93,0,0,0,1.54,2.3,6.87,6.87,0,0,0,2.27,1.54A7.33,7.33,0,0,0,206.91,51Z"/></clipPath><linearGradient id="Degradado_sin_nombre" x1="-823.31" y1="568.09" x2="-822.66" y2="567.07" gradientTransform="matrix(32.57, 0, 0, -53.15, 26845.14, 30208.33)" gradientUnits="userSpaceOnUse"><stop offset="0" stop-color="#43cea2"/><stop offset="1" stop-color="#185a9d"/></linearGradient></defs><title>Recurso 3</title><g id="Capa_2" data-name="Capa 2"><g id="Capa_1-2" data-name="Capa 1"><g id="Grupo_961" data-name="Grupo 961"><path id="Trazado_812" data-name="Trazado 812" class="cls-2" d="M85.86,64.68a3,3,0,0,1,.88,2.11A3.13,3.13,0,0,1,85.86,69a2.79,2.79,0,0,1-2.08.9H67.58a2.92,2.92,0,0,1-2.15-.87,3.53,3.53,0,0,1-1-2.27V34.4a2.92,2.92,0,0,1,.91-2.15,3.08,3.08,0,0,1,2.23-.87,3,3,0,0,1,3,3V63.77H83.77A2.79,2.79,0,0,1,85.86,64.68Z"/><g class="cls-3"><g id="Grupo_960" data-name="Grupo 960"><rect id="Rectángulo_411" data-name="Rectángulo 411" class="cls-2" x="59.29" y="30.03" width="164.83" height="42.85"/></g></g></g><g id="Grupo_963" data-name="Grupo 963"><path id="Trazado_814" data-name="Trazado 814" class="cls-2" d="M112.57,43.13V66.94a3,3,0,0,1-3,3h-.06a3,3,0,0,1-3.08-2.81v-9h-11v8.82a2.89,2.89,0,0,1-.91,2.15,3.1,3.1,0,0,1-2.23.88,2.82,2.82,0,0,1-2.12-.91,3,3,0,0,1-.85-2.12V43a11.35,11.35,0,0,1,.94-4.56,12.24,12.24,0,0,1,2.48-3.72,11.59,11.59,0,0,1,12.66-2.48,12,12,0,0,1,3.69,2.45,11.82,11.82,0,0,1,2.51,3.66,10.92,10.92,0,0,1,.93,4.47Zm-6.1-.12a5.37,5.37,0,0,0-.42-2.14,5.67,5.67,0,0,0-1.18-1.76,5.55,5.55,0,0,0-4-1.6A5.22,5.22,0,0,0,97,39.11,5.36,5.36,0,0,0,95.47,43v8.83h11Z"/><g class="cls-4"><g id="Grupo_962" data-name="Grupo 962"><rect id="Rectángulo_412" data-name="Rectángulo 412" class="cls-2" x="59.29" y="29.23" width="164.83" height="42.85"/></g></g></g><g id="Grupo_965" data-name="Grupo 965"><path id="Trazado_816" data-name="Trazado 816" class="cls-2" d="M133.79,67.92a3.18,3.18,0,0,1-1.15,1.51,2.81,2.81,0,0,1-3.39-.06A3.42,3.42,0,0,1,128,67.92l.12.06q-1.5-3.81-3.11-7.92c-1.07-2.74-2.14-5.5-3.23-8.28l-3.24-8.28q-1.59-4.11-3-7.91a3.39,3.39,0,0,1,0-2.39,2.83,2.83,0,0,1,1.66-1.66,3.07,3.07,0,0,1,2.36.09,2.81,2.81,0,0,1,1.57,1.72l9.79,25.2,9.85-25.2a2.86,2.86,0,0,1,1.58-1.72,3,3,0,0,1,2.35-.09,2.9,2.9,0,0,1,1.63,1.66,3,3,0,0,1,0,2.39L133.79,68Z"/><g class="cls-5"><g id="Grupo_964" data-name="Grupo 964"><rect id="Rectángulo_413" data-name="Rectángulo 413" class="cls-2" x="64.18" y="29.23" width="164.83" height="42.85"/></g></g></g><g id="Grupo_967" data-name="Grupo 967"><path id="Trazado_818" data-name="Trazado 818" class="cls-2" d="M154.39,31.38a2.8,2.8,0,0,1,2.09.9,3,3,0,0,1,.88,2.12V66.91a2.93,2.93,0,0,1-.88,2.15,2.87,2.87,0,0,1-2.09.88,3,3,0,0,1-2.2-.88,2.93,2.93,0,0,1-.88-2.15V34.4a3,3,0,0,1,3.07-3Z"/><g class="cls-6"><g id="Grupo_966" data-name="Grupo 966"><rect id="Rectángulo_414" data-name="Rectángulo 414" class="cls-2" x="48.55" y="29.23" width="164.83" height="42.85"/></g></g></g><g id="Grupo_969" data-name="Grupo 969"><path id="Trazado_820" data-name="Trazado 820" class="cls-2" d="M175.48,71.14a12.21,12.21,0,0,1-5-1,13.06,13.06,0,0,1-4.11-2.9,14.89,14.89,0,0,1-2.84-4.3,15.2,15.2,0,0,1-1.27-5.22V35.61a3,3,0,0,1,.88-2.15,2.88,2.88,0,0,1,2.2-.94,2.76,2.76,0,0,1,2.12.94,3.06,3.06,0,0,1,.84,2.15V57.73a7.14,7.14,0,0,0,.58,2.84,7.7,7.7,0,0,0,1.54,2.32,7.11,7.11,0,0,0,2.3,1.58,7,7,0,0,0,2.78.57,7.07,7.07,0,0,0,2.84-.57,7.37,7.37,0,0,0,3.9-3.9,7.16,7.16,0,0,0,.58-2.85V35.61a3.06,3.06,0,0,1,.87-2.15,2.9,2.9,0,0,1,2.21-.94,2.8,2.8,0,0,1,2.14.94,3,3,0,0,1,.88,2.15V57.73a13.53,13.53,0,0,1-1.1,5.13A13.31,13.31,0,0,1,185,67.12a13.61,13.61,0,0,1-4.23,2.93A12.5,12.5,0,0,1,175.48,71.14Z"/><g class="cls-7"><g id="Grupo_968" data-name="Grupo 968"><rect id="Rectángulo_415" data-name="Rectángulo 415" class="cls-2" x="50.39" y="30.41" width="164.83" height="42.85"/></g></g></g><g id="Grupo_971" data-name="Grupo 971"><path id="Trazado_822" data-name="Trazado 822" class="cls-2" d="M206.91,30.41a12.91,12.91,0,0,1,5,1,13.64,13.64,0,0,1,7.19,7.1,12.74,12.74,0,0,1,1.09,5.23,13.32,13.32,0,0,1-8,12.36,12.85,12.85,0,0,1-5.26,1.06,7.71,7.71,0,0,1-3.08-.82,22.08,22.08,0,0,1-4.11-2.56V65.94a3,3,0,0,1-.91,2.21,3,3,0,0,1-2.17.88,2.93,2.93,0,0,1-2.15-.88,3,3,0,0,1-.88-2.21V43.82a13.11,13.11,0,0,1,1.12-5,14.5,14.5,0,0,1,2.88-4.29,14.13,14.13,0,0,1,4.2-3A11.85,11.85,0,0,1,206.91,30.41Zm0,20.61a7.33,7.33,0,0,0,2.81-.55,7.15,7.15,0,0,0,2.3-1.54,7.4,7.4,0,0,0,1.57-2.3,7.08,7.08,0,0,0,.58-2.87,7,7,0,0,0-.58-2.81A7.11,7.11,0,0,0,212,38.68a7.93,7.93,0,0,0-2.3-1.54,7.21,7.21,0,0,0-5.62,0A7.31,7.31,0,0,0,200.29,41a7,7,0,0,0-.57,2.81,7.07,7.07,0,0,0,.57,2.87,7.93,7.93,0,0,0,1.54,2.3,6.87,6.87,0,0,0,2.27,1.54A7.33,7.33,0,0,0,206.91,51Z"/><g class="cls-8"><g id="Grupo_970" data-name="Grupo 970"><rect id="Rectángulo_416" data-name="Rectángulo 416" class="cls-2" x="60.39" y="27.69" width="164.83" height="42.85"/></g></g></g><path id="Sustracción_56" data-name="Sustracción 56" class="cls-9" d="M36,72a3.31,3.31,0,0,1-2-.63L34,71.3l0,0c-.9-1-1.18-2.48-.78-3a32.21,32.21,0,0,0,3.11-4.65,39.4,39.4,0,0,0,4.57-25.39c0-.13-.05-.26-.07-.38.76,1.31,1.49,2.66,2.16,4,1.22,6.12,1.69,15.31-3,24.37a37.93,37.93,0,0,1-3.3,5.55A.8.8,0,0,1,36,72Z"/><path id="Sustracción_57" data-name="Sustracción 57" class="cls-2" d="M21.08,27.64a19.14,19.14,0,0,1-10.28-3C6.1,21.48,3.28,15.84,2,12.76.52,9.09-.63,4.43.39,2.86,1,2,2.56,1.22,5.1.68A36.07,36.07,0,0,1,12.21,0,33.08,33.08,0,0,1,19,.67,18,18,0,0,1,25.09,3,24.69,24.69,0,0,1,31.6,9.08a12.5,12.5,0,0,1,2.66,7.46v.29a14.24,14.24,0,0,1-.47,4.36,88.15,88.15,0,0,0-11.16-7.8C16.68,9.89,7,6.68,6.55,6.55c.52.17,5.28,1.91,14.16,8.42A69.75,69.75,0,0,1,31,24.4a12.21,12.21,0,0,1-1.75,1A21.66,21.66,0,0,1,22,27.62Z"/><path id="Trazado_985" data-name="Trazado 985" class="cls-9" d="M46.57,19a4.2,4.2,0,1,0-4.18,4.6,2.68,2.68,0,0,0,.4,0,4.2,4.2,0,0,0,3.8-4.18A2.75,2.75,0,0,0,46.57,19Z"/><path id="Intersección_5" data-name="Intersección 5" class="cls-10" d="M53.41,69.93a66.74,66.74,0,0,0-2-11.49A82.82,82.82,0,0,0,27.63,18.59C38,25.79,51.53,38.46,57.33,58a76.94,76.94,0,0,1,2.86,12.43,3.91,3.91,0,0,1-2.5,1.27,5.63,5.63,0,0,1-.58,0C54.22,71.73,53.44,70.29,53.41,69.93Z"/></g></g></svg>