<svg xmlns="http://www.w3.org/2000/svg" viewBox="0 0 38.14 38.14"><defs><style>.cls-1{fill:none;}.cls-2{fill:#fff;}</style></defs><title>Grupo 36</title><g id="Capa_2" data-name="Capa 2"><g id="Capa_1-2" data-name="Capa 1"><g id="Grupo_36" data-name="Grupo 36"><g id="Elipse_28" data-name="Elipse 28"><path class="cls-1" d="M36.26,10.81a18,18,0,0,0-.88-1.62A19.38,19.38,0,0,0,29,2.76a18,18,0,0,0-1.62-.88,19.09,19.09,0,0,0-16.52,0,18,18,0,0,0-1.62.88A19.38,19.38,0,0,0,2.76,9.19c-.31.52-.61,1.07-.88,1.62a19.09,19.09,0,0,0,0,16.52c.27.56.57,1.1.88,1.62a19.38,19.38,0,0,0,6.43,6.43c.52.31,1.06.61,1.62.88a19.09,19.09,0,0,0,16.52,0c.55-.27,1.1-.57,1.62-.88A19.38,19.38,0,0,0,35.38,29a18,18,0,0,0,.88-1.62,19.09,19.09,0,0,0,0-16.52ZM26.15,21.2H20.07v6.08h-3V21.2H11v-3h6.08V12.12h3V18.2h6.08Z"/><path class="cls-2" d="M36.26,10.81c-.27-.55-.57-1.1-.88-1.62A19.38,19.38,0,0,0,29,2.76c-.52-.31-1.07-.61-1.62-.88a19.09,19.09,0,0,0-16.52,0c-.56.27-1.1.57-1.62.88A19.38,19.38,0,0,0,2.76,9.19c-.31.52-.61,1.07-.88,1.62a19.09,19.09,0,0,0,0,16.52c.27.56.57,1.1.88,1.62a19.38,19.38,0,0,0,6.43,6.43c.52.31,1.06.61,1.62.88a19.09,19.09,0,0,0,16.52,0c.55-.27,1.1-.57,1.62-.88A19.38,19.38,0,0,0,35.38,29c.31-.52.61-1.06.88-1.62a19.09,19.09,0,0,0,0-16.52ZM19.07,35.14A16.07,16.07,0,1,1,35.14,19.07,16.09,16.09,0,0,1,19.07,35.14Z"/></g><polygon class="cls-2" points="26.15 18.2 26.15 21.2 20.07 21.2 20.07 27.28 17.07 27.28 17.07 21.2 10.99 21.2 10.99 18.2 17.07 18.2 17.07 12.12 20.07 12.12 20.07 18.2 26.15 18.2"/></g></g></g></svg>