<svg xmlns="http://www.w3.org/2000/svg" xmlns:xlink="http://www.w3.org/1999/xlink" viewBox="0 0 57.23 57.23"><defs><style>.cls-1{fill:url(#Degradado_sin_nombre_30);}</style><linearGradient id="Degradado_sin_nombre_30" x1="-1073.92" y1="466.6" x2="-1075.71" y2="468.91" gradientTransform="matrix(27.13, 0, 0, -27.13, 29190.08, 12719.08)" gradientUnits="userSpaceOnUse"><stop offset="0" stop-color="#43cea2"/><stop offset="1" stop-color="#185a9d"/></linearGradient></defs><title>Sustracción 17 (3)</title><g id="Capa_2" data-name="Capa 2"><g id="Capa_1-2" data-name="Capa 1"><path id="Sustracción_17" data-name="Sustracción 17" class="cls-1" d="M28.67,57.23A28.56,28.56,0,1,1,49,48.83,28.68,28.68,0,0,1,28.67,57.23ZM10.45,42.61h0a23,23,0,0,0,12.44,3.65A22.86,22.86,0,0,0,46,23.61v-.44c0-.39,0-.73,0-1.05a16.63,16.63,0,0,0,4-4.2,16.06,16.06,0,0,1-4.66,1.28,8.08,8.08,0,0,0,3.57-4.49,16.12,16.12,0,0,1-5.15,2,8.12,8.12,0,0,0-13.83,7.4A23.14,23.14,0,0,1,13.2,15.6a8.12,8.12,0,0,0,2.51,10.84,8,8,0,0,1-3.67-1v.1a8.13,8.13,0,0,0,6.51,8,8.62,8.62,0,0,1-2.14.29,8.81,8.81,0,0,1-1.53-.15,8.14,8.14,0,0,0,7.58,5.64,16.21,16.21,0,0,1-10.08,3.47A15.63,15.63,0,0,1,10.45,42.61Z"/></g></g></svg>